<?xml version="1.0" standalone="no"?>
<!DOCTYPE svg PUBLIC "-//W3C//DTD SVG 20010904//EN"
 "http://www.w3.org/TR/2001/REC-SVG-20010904/DTD/svg10.dtd">
<svg version="1.0" xmlns="http://www.w3.org/2000/svg"
 width="600.000000pt" height="850.000000pt" viewBox="0 0 600.000000 849.000000"
 preserveAspectRatio="xMidYMid meet">

<g transform="translate(0.000000,849.000000) scale(0.100000,-0.100000)"
fill="#000000" stroke="none">

<path d="M2189 7293 c-35 -38 -69 -100 -69 -124 0 -12 16 -40 35 -63 43 -52
44 -74 6 -110 -28 -27 -29 -30 -14 -52 17 -27 22 -24 -68 -49 -31 -9 -64 -24
-74 -35 -16 -18 -15 -21 26 -70 23 -27 39 -53 36 -56 -3 -4 -70 -30 -149 -58
-133 -48 -143 -53 -146 -79 -2 -19 1 -27 12 -27 24 0 19 -33 -9 -66 -21 -23
-25 -36 -20 -64 4 -19 12 -39 18 -45 27 -22 45 -62 40 -88 -8 -39 4 -75 26
-82 15 -5 21 -17 23 -53 3 -44 5 -48 38 -58 19 -6 36 -18 39 -25 2 -8 10 -18
17 -22 8 -4 14 -11 14 -16 0 -14 -87 -49 -111 -44 -24 4 -84 -8 -207 -44 -39
-11 -56 -21 -62 -39 -6 -15 -15 -22 -24 -18 -8 3 -17 1 -21 -5 -3 -6 -27 -11
-53 -11 -26 0 -56 -7 -66 -15 -19 -15 -19 -15 2 -35 14 -13 22 -33 22 -52 0
-17 6 -39 13 -47 23 -28 34 -65 26 -86 -16 -43 -10 -64 25 -80 31 -15 34 -20
39 -77 6 -68 2 -88 -19 -88 -18 0 -18 -15 3 -68 14 -38 15 -52 4 -103 -11 -55
-10 -62 9 -89 12 -17 28 -30 36 -30 21 0 94 -77 94 -100 0 -9 -7 -24 -16 -31
-19 -16 -15 -77 10 -148 18 -52 11 -98 -15 -106 -26 -9 -42 -41 -31 -62 7 -12
3 -22 -17 -39 -26 -22 -26 -22 -63 -3 -20 10 -41 27 -47 36 -8 16 -13 13 -45
-20 -20 -21 -36 -42 -36 -47 0 -5 -9 -12 -21 -15 -15 -5 -29 1 -51 24 -40 41
-71 40 -115 -4 -27 -27 -34 -41 -29 -58 3 -12 9 -42 13 -67 3 -25 10 -51 16
-58 7 -9 7 -16 -1 -24 -6 -6 -7 -19 -3 -32 26 -69 18 -216 -12 -216 -6 0 -6
-22 -1 -57 4 -32 9 -78 10 -103 2 -25 6 -60 9 -77 8 -38 10 -37 -45 -18 -23 8
-44 15 -45 15 -2 0 -11 -22 -20 -50 -15 -46 -20 -50 -71 -70 -30 -11 -67 -20
-82 -20 -42 0 -54 -17 -36 -51 8 -16 17 -68 20 -117 6 -76 4 -97 -15 -146 -12
-31 -20 -70 -19 -86 1 -15 -3 -34 -9 -42 -6 -7 -14 -42 -18 -78 -5 -39 -15
-75 -26 -89 -11 -13 -22 -41 -25 -62 -5 -29 -12 -39 -30 -43 -23 -6 -116 -65
-122 -77 -1 -3 -9 -15 -17 -25 -13 -18 -14 -18 -37 4 -14 12 -29 22 -34 22 -6
0 -34 7 -62 15 -35 11 -52 21 -52 32 0 13 -5 12 -25 -7 -13 -12 -36 -40 -51
-62 -15 -21 -57 -59 -94 -83 -92 -61 -107 -93 -91 -195 6 -41 11 -94 11 -116
0 -58 34 -161 70 -209 81 -110 111 -158 130 -204 33 -84 75 -163 119 -221 23
-30 49 -80 58 -110 15 -51 14 -62 -3 -170 -27 -167 -25 -259 10 -339 20 -47
31 -95 41 -190 13 -124 49 -266 65 -256 10 6 45 -93 36 -102 -3 -3 -2 -11 3
-17 9 -11 45 -170 56 -248 3 -21 9 -38 13 -38 4 0 15 21 24 48 32 87 111 205
204 302 112 117 138 161 170 287 38 144 45 392 16 513 -22 91 -35 287 -36 525
0 121 3 146 21 186 32 72 68 99 129 99 67 0 109 -15 164 -60 73 -60 130 -88
235 -116 98 -26 104 -27 320 -21 121 3 236 11 256 17 121 35 201 179 151 270
-11 20 -47 54 -83 78 -145 99 -192 171 -228 348 -11 54 -24 112 -30 127 -17
44 -13 96 13 167 113 304 110 300 232 360 l87 42 116 -5 c64 -4 170 -9 236
-13 95 -5 150 -2 268 15 81 11 170 21 197 21 60 0 185 23 235 44 20 9 39 16
41 16 2 0 11 -18 20 -40 16 -39 17 -40 68 -40 32 0 65 7 89 20 46 25 63 25
118 1 33 -15 65 -19 126 -19 75 1 84 4 98 25 9 14 25 23 41 23 13 0 35 6 47
14 17 12 40 13 107 7 92 -9 100 -7 100 15 0 18 24 18 40 -1 8 -10 30 -15 62
-15 27 0 59 -5 71 -12 12 -6 39 -10 61 -10 22 1 54 -3 72 -10 25 -9 39 -8 62
1 25 10 44 10 109 -3 88 -18 186 -11 245 19 22 10 45 14 69 10 46 -8 60 9 63
75 1 28 8 56 14 62 7 7 12 35 12 63 0 38 6 60 26 88 30 45 53 106 55 150 3 43
-36 104 -75 121 -17 7 -65 46 -107 87 -61 59 -80 84 -93 126 l-17 51 103 142
c164 225 161 220 150 233 -5 7 -79 103 -165 213 -87 111 -157 206 -157 212 0
9 72 66 156 122 12 8 58 40 101 71 43 31 110 77 148 104 72 49 132 105 150
140 6 11 20 21 31 23 11 2 33 13 49 26 25 20 30 32 36 92 4 38 4 73 1 79 -4 5
-5 22 -4 36 4 33 -12 45 -71 53 -39 6 -55 3 -84 -14 l-35 -21 -54 36 c-56 37
-67 62 -39 85 22 18 20 60 -3 60 -10 0 -23 5 -28 10 -6 6 -28 12 -50 13 -29 1
-41 8 -50 25 -14 28 -39 47 -75 55 -23 6 -26 3 -37 -38 -8 -29 -22 -52 -44
-68 -45 -34 -205 -118 -308 -162 -167 -71 -206 -91 -305 -156 -135 -90 -198
-169 -263 -331 -7 -16 -16 -28 -22 -28 -5 0 -21 23 -35 51 -33 63 -32 142 0
147 54 10 31 54 -37 72 -34 10 -41 17 -68 77 -51 111 -82 128 -135 73 -23 -24
-37 -30 -72 -30 -42 0 -43 1 -32 22 9 17 8 28 -6 54 -16 30 -16 34 -1 55 9 13
16 27 16 31 0 13 -63 48 -86 48 -12 0 -33 9 -47 21 -22 16 -30 18 -47 9 -19
-10 -26 -7 -55 23 -19 20 -49 38 -67 42 -18 4 -54 23 -81 41 -27 19 -60 34
-73 34 -14 0 -50 14 -82 31 -37 20 -67 29 -85 26 -21 -3 -32 2 -43 19 -8 12
-25 25 -37 28 -22 6 -55 47 -81 101 -20 42 -39 158 -32 192 6 25 -1 37 -57 96
-46 48 -71 67 -90 67 -13 0 -47 15 -73 34 -45 31 -49 36 -46 70 2 20 -2 37 -8
37 -5 1 -14 2 -19 3 -5 0 -19 14 -31 29 -20 25 -29 28 -69 26 -90 -5 -143 19
-171 75 -12 25 -33 48 -55 60 -19 11 -47 34 -61 53 -20 26 -88 73 -107 73 -2
0 -15 -12 -28 -27z m121 -56 c14 -16 42 -41 63 -54 21 -13 45 -39 52 -56 7
-18 23 -41 34 -51 21 -19 30 -22 116 -31 82 -10 91 -13 103 -40 6 -14 18 -25
27 -25 11 0 15 -9 13 -32 -2 -18 3 -33 10 -36 7 -2 26 -15 42 -28 16 -14 52
-32 80 -40 40 -12 56 -23 71 -49 11 -18 31 -41 45 -50 22 -14 25 -22 20 -49
-8 -44 27 -201 51 -229 10 -12 27 -34 36 -49 10 -16 24 -28 32 -28 8 0 22 -11
31 -25 13 -20 25 -25 58 -25 27 0 58 -10 91 -30 28 -16 64 -30 80 -30 19 0 46
-13 74 -35 24 -19 55 -35 68 -35 14 0 42 -17 68 -41 38 -35 47 -39 65 -29 17
9 25 7 47 -9 14 -12 34 -21 44 -21 28 0 69 -22 69 -37 0 -7 -4 -13 -9 -13 -17
0 -22 -39 -9 -62 7 -13 13 -39 13 -58 0 -35 1 -35 47 -38 42 -3 50 1 82 32 23
23 41 34 51 30 9 -4 34 -42 56 -86 22 -43 47 -82 57 -85 9 -3 33 -12 52 -20
l35 -15 -25 -9 c-33 -13 -40 -26 -40 -74 1 -90 86 -209 107 -147 3 9 23 53 43
97 80 167 216 276 480 385 139 57 314 147 360 187 17 14 38 43 47 65 19 47 39
47 68 1 19 -30 40 -44 75 -48 8 -1 26 -6 40 -12 14 -5 31 -12 38 -14 10 -3 8
-11 -7 -31 -28 -35 -26 -53 5 -75 14 -10 41 -31 61 -47 31 -27 37 -28 56 -16
53 33 68 37 108 30 49 -9 66 -29 41 -48 -15 -12 -16 -14 -1 -25 12 -10 15 -25
11 -76 -5 -69 -26 -100 -67 -101 -12 0 -28 -12 -38 -27 -41 -67 -60 -82 -464
-366 -70 -49 -110 -83 -106 -90 3 -7 76 -102 161 -212 86 -110 160 -206 165
-212 7 -9 -23 -59 -104 -170 -62 -87 -124 -171 -137 -187 -20 -26 -22 -31 -9
-41 8 -5 17 -24 21 -40 4 -17 14 -42 24 -56 23 -35 162 -155 189 -163 12 -4
30 -24 41 -45 28 -54 14 -132 -37 -200 -18 -24 -25 -46 -26 -85 -1 -28 -7 -61
-13 -73 -7 -12 -12 -39 -12 -60 0 -54 -11 -67 -50 -58 -30 7 -42 3 -123 -37
-29 -14 -148 -11 -213 6 -55 14 -64 14 -91 1 -27 -13 -35 -13 -65 -1 -19 8
-44 12 -56 9 -11 -3 -44 3 -71 12 -30 10 -63 14 -80 10 -20 -4 -32 -2 -38 8
-14 25 -51 30 -63 10 -10 -16 -24 -18 -102 -15 -73 2 -95 -1 -109 -14 -10 -9
-22 -13 -28 -10 -14 9 -60 -14 -66 -33 -8 -26 -152 -19 -211 10 l-46 22 -52
-21 c-28 -12 -70 -24 -93 -28 -41 -6 -42 -6 -63 37 -13 24 -24 45 -25 47 -2 2
-31 -9 -66 -23 -49 -20 -94 -28 -194 -36 -71 -5 -168 -16 -215 -24 -109 -18
-209 -20 -445 -10 l-190 8 -56 -27 c-31 -14 -60 -26 -65 -26 -20 0 -86 -64
-105 -101 -18 -36 -43 -101 -101 -258 -25 -69 -21 -134 16 -296 46 -195 90
-263 232 -356 110 -72 126 -140 55 -242 -48 -70 -91 -86 -267 -98 -324 -24
-503 13 -644 131 -55 46 -77 56 -153 65 -48 6 -61 4 -92 -15 -86 -53 -119
-210 -91 -434 10 -77 14 -156 10 -191 -5 -44 -1 -83 16 -150 40 -167 36 -370
-10 -550 -30 -118 -55 -160 -156 -266 -93 -97 -137 -157 -190 -259 -21 -42
-29 -50 -32 -35 -28 153 -102 391 -134 432 -5 7 -16 74 -24 149 -10 99 -21
154 -40 198 -37 89 -40 159 -14 309 30 178 25 200 -87 367 -24 34 -55 96 -70
136 -16 44 -51 106 -85 151 -93 125 -118 185 -128 303 -5 55 -12 116 -15 134
-10 53 15 99 77 139 52 33 82 60 132 122 20 24 27 28 37 18 7 -7 22 -13 33
-13 31 0 92 -24 113 -43 24 -21 61 -12 65 16 2 12 19 28 41 40 20 10 37 22 37
27 0 4 20 13 45 20 42 12 44 14 38 42 -4 21 0 37 14 56 19 26 25 47 39 145 4
20 10 40 15 43 5 3 9 23 9 44 0 22 7 57 16 79 12 31 15 64 11 148 -3 59 -7
119 -9 133 -3 23 1 25 42 30 75 9 122 38 138 87 l13 42 47 -15 c64 -19 65 -19
57 24 -3 20 -8 67 -9 103 -2 37 -6 79 -10 94 -4 15 -3 32 2 38 21 28 30 100
21 165 -5 37 -7 77 -4 89 3 13 1 31 -4 40 -11 22 -31 107 -31 131 0 9 16 30
35 45 39 31 39 31 96 -20 21 -20 30 -22 51 -14 15 5 34 23 44 40 26 43 40 45
91 10 l46 -30 31 28 c17 15 35 31 40 35 5 4 4 13 -3 21 -15 19 -4 47 20 47 36
0 39 58 9 159 l-21 75 20 27 c26 35 19 86 -14 101 -13 6 -28 21 -34 34 -7 16
-19 24 -36 24 -35 0 -46 32 -33 98 9 43 8 60 -7 98 -11 28 -14 49 -8 53 21 14
43 74 32 87 -5 7 -10 31 -11 54 0 36 -4 42 -32 54 -30 12 -31 14 -31 79 0 56
-4 70 -23 87 -15 15 -21 28 -17 41 4 11 0 30 -9 43 -19 30 -13 36 36 36 63 0
118 21 118 46 0 19 14 25 122 52 81 20 125 27 129 20 8 -13 129 41 129 58 0 6
-7 18 -16 25 -9 7 -20 23 -25 36 -5 15 -17 23 -32 23 -33 0 -47 18 -47 62 0
28 -5 40 -21 49 -18 9 -21 17 -16 56 4 39 1 50 -29 89 -41 53 -42 69 -9 114
31 41 32 64 4 84 l-21 14 24 15 c12 8 85 36 161 63 75 26 137 53 137 59 0 6
-20 31 -45 55 -40 40 -43 45 -30 60 9 9 43 25 78 35 78 23 84 28 67 60 -12 23
-11 28 13 53 22 23 26 33 20 65 -3 20 -9 37 -14 37 -4 0 -20 15 -34 34 l-27
35 28 48 c15 26 37 55 48 65 18 15 23 15 51 1 16 -9 41 -29 55 -46z"/>

</g>
</svg>
